<svg width="122" height="23" viewBox="0 0 122 23" fill="none" xmlns="http://www.w3.org/2000/svg">
<path d="M111.907 0.729588C113.326 0.729588 114.623 0.990937 115.799 1.51363C116.994 2.01767 117.946 2.74571 118.655 3.69777C119.383 4.63116 119.747 5.74189 119.747 7.02997C119.747 8.05669 119.514 8.98075 119.047 9.80213C118.581 10.6235 117.937 11.3236 117.115 11.9023C116.313 12.4623 115.398 12.873 114.371 13.1343L118.403 18.9867C118.851 19.5654 119.318 20.1441 119.803 20.7228C120.307 21.3015 120.83 21.8709 121.371 22.4309H117.031C116.789 21.8895 116.471 21.3015 116.079 20.6668C115.706 20.0134 115.192 19.192 114.539 18.2026L111.123 13.4424H109.275V16.2145C109.275 17.2599 109.293 18.3053 109.331 19.3507C109.387 20.3961 109.536 21.4228 109.779 22.4309H105.971C106.213 21.4228 106.353 20.3961 106.391 19.3507C106.447 18.3053 106.475 17.2599 106.475 16.2145V6.94596C106.475 5.90057 106.447 4.85517 106.391 3.80977C106.353 2.76438 106.213 1.73765 105.971 0.729588H111.907ZM109.275 11.2022H111.067C112.896 11.2022 114.296 10.8475 115.267 10.1382C116.238 9.42878 116.723 8.39271 116.723 7.02997C116.723 5.64855 116.238 4.63116 115.267 3.97778C114.296 3.30574 112.896 2.96972 111.067 2.96972H109.275V11.2022Z" fill="#080D10"/>
<path d="M102.901 0.729588L103.573 4.03379C103.069 3.77244 102.537 3.56709 101.977 3.41775C101.435 3.24974 100.81 3.13773 100.1 3.08173C99.3911 3.00706 98.523 2.96972 97.4963 2.96972H93.5761V10.2222H95.9562C97.0016 10.2222 98.047 10.2035 99.0924 10.1662C100.138 10.1102 101.165 9.96081 102.173 9.71813V12.9663C101.165 12.7236 100.138 12.5836 99.0924 12.5463C98.047 12.4903 97.0016 12.4623 95.9562 12.4623H93.5761V20.1908H97.7203C99.2511 20.1908 100.586 20.1161 101.725 19.9667C102.882 19.7987 103.834 19.5187 104.581 19.1267L103.909 22.4309H90.2719C90.5146 21.4228 90.6546 20.3961 90.6919 19.3507C90.7479 18.3053 90.7759 17.2599 90.7759 16.2145V6.94596C90.7759 5.90057 90.7479 4.85517 90.6919 3.80977C90.6546 2.76438 90.5146 1.73765 90.2719 0.729588H102.901Z" fill="#080D10"/>
<path d="M88.1993 16.6067H88.3113L87.8632 20.6949C86.9485 21.4043 85.9311 21.9363 84.8111 22.291C83.691 22.6457 82.2442 22.8231 80.4708 22.8231C78.884 22.8231 77.4186 22.543 76.0745 21.983C74.7305 21.4043 73.5637 20.6016 72.5743 19.5749C71.6036 18.5481 70.8476 17.3534 70.3062 15.9906C69.7648 14.6279 69.4941 13.1531 69.4941 11.5664C69.4941 9.97962 69.7648 8.50487 70.3062 7.14212C70.8476 5.77937 71.6129 4.59396 72.6023 3.5859C73.5917 2.55917 74.7491 1.76579 76.0745 1.20576C77.4186 0.627058 78.884 0.337708 80.4708 0.337708C82.1882 0.337708 83.607 0.515051 84.7271 0.869739C85.8658 1.22443 86.8925 1.75646 87.8072 2.46583L88.2553 6.52608H88.1433C87.3965 5.38734 86.4072 4.44462 85.1751 3.69791C83.943 2.9512 82.3749 2.57784 80.4708 2.57784C79.2947 2.57784 78.212 2.81119 77.2226 3.27788C76.2519 3.74458 75.4118 4.39795 74.7025 5.238C74.0117 6.05938 73.4704 7.01144 73.0784 8.09417C72.705 9.1769 72.5183 10.3343 72.5183 11.5664C72.5183 12.7985 72.705 13.9559 73.0784 15.0386C73.4704 16.1213 74.0117 17.0827 74.7025 17.9228C75.4118 18.7441 76.2519 19.3975 77.2226 19.8829C78.212 20.3496 79.2947 20.5829 80.4708 20.5829C82.4683 20.5829 84.0643 20.2096 85.2591 19.4629C86.4725 18.6975 87.4526 17.7454 88.1993 16.6067Z" fill="#080D10"/>
<path d="M53.254 0.729627L64.9027 18.7907V6.918C64.9027 5.8726 64.8747 4.82721 64.8187 3.78181C64.7814 2.73641 64.6413 1.70969 64.3987 0.701626H68.0669C67.8242 1.70969 67.6749 2.73641 67.6189 3.78181C67.5815 4.82721 67.5629 5.8726 67.5629 6.918V16.1866C67.5629 17.232 67.5815 18.2867 67.6189 19.3507C67.6749 20.3961 67.8242 21.4229 68.0669 22.4309H64.0346L52.4699 4.50985V16.2146C52.4699 17.26 52.4886 18.3054 52.5259 19.3507C52.582 20.3961 52.7313 21.4229 52.974 22.4309H49.3058C49.5484 21.4229 49.6884 20.3961 49.7258 19.3507C49.7818 18.3054 49.8098 17.26 49.8098 16.2146V6.946C49.8098 5.9006 49.7818 4.85521 49.7258 3.80981C49.6884 2.76442 49.5484 1.73769 49.3058 0.729627H53.254Z" fill="#080D10"/>
<path d="M46.5321 0.729588L47.2042 4.03379C46.7001 3.77244 46.1681 3.56709 45.6081 3.41775C45.0667 3.24974 44.4413 3.13773 43.732 3.08173C43.0226 3.00706 42.1545 2.96972 41.1278 2.96972H37.2076V10.2222H39.5877C40.6331 10.2222 41.6785 10.2035 42.7239 10.1662C43.7693 10.1102 44.796 9.96081 45.8041 9.71813V12.9663C44.796 12.7236 43.7693 12.5836 42.7239 12.5463C41.6785 12.4903 40.6331 12.4623 39.5877 12.4623H37.2076V20.1908H41.3518C42.8826 20.1908 44.2173 20.1161 45.3561 19.9667C46.5135 19.7987 47.4655 19.5187 48.2122 19.1267L47.5402 22.4309H33.9034C34.1461 21.4228 34.2861 20.3961 34.3234 19.3507C34.3794 18.3053 34.4074 17.2599 34.4074 16.2145V6.94596C34.4074 5.90057 34.3794 4.85517 34.3234 3.80977C34.2861 2.76438 34.1461 1.73765 33.9034 0.729588H46.5321Z" fill="#080D10"/>
<path d="M31.2723 0.729588L31.9443 4.03379C31.4403 3.77244 30.9083 3.56709 30.3482 3.41775C29.8069 3.24974 29.1815 3.13773 28.4721 3.08173C27.7627 3.00706 26.8947 2.96972 25.868 2.96972H21.9477V10.5022H24.3279C25.3733 10.5022 26.4187 10.4835 27.4641 10.4462C28.5095 10.3902 29.5362 10.2408 30.5442 9.99814V13.2463C29.5362 13.0037 28.5095 12.8636 27.4641 12.8263C26.4187 12.7703 25.3733 12.7423 24.3279 12.7423H21.9477V16.2145C21.9477 17.2599 21.9664 18.3053 22.0037 19.3507C22.0597 20.3961 22.2091 21.4228 22.4518 22.4309H18.6435C18.8862 21.4228 19.0262 20.3961 19.0635 19.3507C19.1196 18.3053 19.1476 17.2599 19.1476 16.2145V6.94596C19.1476 5.90057 19.1196 4.85517 19.0635 3.80977C19.0262 2.76438 18.8862 1.73765 18.6435 0.729588H31.2723Z" fill="#080D10"/>
<path d="M15.7607 20.5843C15.7607 21.6029 14.9346 22.429 13.916 22.429H3.50488C2.19743 22.429 0.948415 21.9319 0 21.055V20.5843H15.7607ZM15.7607 19.6038H3.50488C2.19742 19.6038 0.948424 19.1067 0 18.2298V17.7591H15.7607V19.6038ZM15.7998 1.27474L14.54 2.46322C14.8122 2.88379 14.9716 3.38396 14.9717 3.9222V9.95638L13.3086 11.3441L11.4912 10.0247V8.47298L9.9834 6.76986L8.26074 8.39779V10.014L14.7314 13.9798C15.3949 14.3864 15.7997 15.1089 15.7998 15.887V16.7786H0.0146484C0.0146489 16.2636 0.0108687 15.7487 0.00585938 15.2337C0.00229946 14.8678 0.17776 14.5225 0.475586 14.3099L1.98633 13.2318V12.7767L0 13.4574V11.6214C0.000106327 11.2603 0.17481 10.9211 0.46875 10.7113L1.98633 9.62826V9.17318L0 9.85482V8.01888C0 7.65761 0.174731 7.31865 0.46875 7.10873L1.98633 6.02474V5.56966L0 6.2513V4.71127C0.93301 2.37947 3.21301 0.731965 5.87793 0.731773H15.7998V1.27474Z" fill="#080D10"/>
</svg>
